<svg width="50" height="50" viewBox="0 0 50 50" fill="none" xmlns="http://www.w3.org/2000/svg">
<path fill-rule="evenodd" clip-rule="evenodd" d="M42.5419 6.81426C43.2918 6.06449 44.4872 6.06008 45.2657 6.81206C46.0222 7.56845 46.0222 8.79013 45.2679 9.54432L9.5414 45.2688C9.18632 45.6238 8.67465 45.8333 8.17621 45.8333C7.6888 45.8333 7.20801 45.6349 6.81984 45.2754C6.06116 44.4882 6.06116 43.2907 6.81323 42.5387L12.7018 36.6508H12.6423C9.70681 36.6508 7.5697 34.5779 7.17272 31.3583C6.72942 28.1387 6.81764 22.6257 7.17272 19.6927C7.58955 16.6495 9.84134 14.5568 12.6423 14.5568H16.4556L23.7336 8.60269C24.618 7.85292 26.1839 7.14504 27.3947 7.1252C29.6002 7.1252 31.6292 8.66664 32.357 11.1365C32.6438 12.1751 32.7562 13.2094 32.8445 14.2039L33.0187 15.6131C33.0474 15.8292 33.0738 16.0365 33.0959 16.257L42.5419 6.81426ZM31.0018 28.6071C31.2995 28.316 31.9656 28.1065 32.2655 28.1837C33.0749 28.3888 33.2337 29.5509 33.2205 30.4639C33.183 33.1145 33.0948 34.9581 32.9536 36.0982L32.8544 37.0376L32.8526 37.055C32.7584 38 32.6608 38.978 32.3802 40.0213C31.6458 42.4867 29.6763 44.0877 27.4377 44.0877C27.365 44.0877 27.2922 44.0877 27.2172 44.0855C25.9799 44.0855 24.639 43.3445 23.8781 42.6984L21.1676 40.6012C20.1376 39.836 20.442 38.6143 21.0198 37.9065C21.4513 37.3795 26.6375 32.6185 29.3615 30.118C30.2852 29.27 30.9258 28.6819 31.0018 28.6071Z" fill="white"/>
</svg>
