<svg width="50" height="50" viewBox="0 0 50 50" fill="none" xmlns="http://www.w3.org/2000/svg">
<path fill-rule="evenodd" clip-rule="evenodd" d="M27.8274 13.4387C27.7226 12.4255 27.6134 11.3742 27.3447 10.3252C26.6128 7.81569 24.5855 6.25002 22.4119 6.25002C21.1994 6.24555 19.6659 6.99259 18.7964 7.74859L11.5895 13.7854H7.81671C5.04012 13.7854 2.80748 15.9258 2.38585 19.0147C2.02758 21.9805 1.9402 27.5789 2.38585 30.8422C2.77252 34.1055 4.90467 36.2147 7.81671 36.2147H11.5895L18.9362 42.3409C19.6899 42.9962 21.0203 43.7477 22.2437 43.7477C22.3223 43.75 22.3922 43.75 22.4621 43.75C24.6773 43.75 26.6281 42.1262 27.3599 39.6233C27.6357 38.5652 27.7323 37.5734 27.8257 36.615L27.8274 36.5971L27.9258 35.6421C28.3015 32.5443 28.3015 17.4356 27.9258 14.3602L27.8274 13.4387ZM36.2639 13.5304C35.6631 12.6447 34.4725 12.4232 33.6009 13.0383C32.7379 13.6579 32.5239 14.8791 33.1246 15.7626C34.7958 18.2251 35.7155 21.5041 35.7155 25C35.7155 28.4937 34.7958 31.7749 33.1246 34.2374C32.5239 35.1209 32.7379 36.3422 33.603 36.9617C33.9264 37.1898 34.3043 37.3106 34.6931 37.3106C35.3201 37.3106 35.9056 36.9953 36.2639 36.4696C38.3742 33.3607 39.5385 29.2877 39.5385 25C39.5385 20.7123 38.3742 16.6393 36.2639 13.5304ZM40.1878 6.71056C41.0573 6.09324 42.2522 6.31914 42.8486 7.20263C46.1167 12.0137 47.9168 18.3368 47.9168 24.9998C47.9168 31.6673 46.1167 37.9881 42.8486 42.7992C42.4925 43.3248 41.9049 43.6402 41.2779 43.6402C40.889 43.6402 40.5133 43.5194 40.19 43.2913C39.3249 42.6717 39.1108 41.4527 39.7094 40.567C42.5362 36.4023 44.0938 30.8733 44.0938 24.9998C44.0938 19.1285 42.5362 13.5995 39.7094 9.43482C39.1108 8.55134 39.3249 7.33012 40.1878 6.71056Z" fill="white"/>
</svg>
